<?xml version="1.0" encoding="UTF-8" standalone="no"?>
<svg xmlns="http://www.w3.org/2000/svg" width="300" height="300" viewBox="0 0 300 300">
  <rect width="300" height="300" fill="#121212" />
  <!-- Veteran leader chicken - Colonel Sanders -->
  <path d="M150 50 C 130 55, 115 70, 110 90 C 105 110, 105 135, 115 155 C 125 175, 140 190, 160 200 C 180 210, 205 210, 220 200 C 235 190, 245 170, 245 150 C 245 130, 235 110, 220 95 C 205 80, 185 70, 165 65 C 145 60, 125 65, 115 80" stroke="#d6c8b6" stroke-width="3" fill="none" />
  <!-- Military-style hat -->
  <path d="M130 60 C 140 50, 160 50, 170 60" stroke="#d6c8b6" stroke-width="3" fill="none" />
  <path d="M130 60 C 125 55, 120 50, 125 45 C 130 40, 170 40, 175 45 C 180 50, 175 55, 170 60" stroke="#d6c8b6" stroke-width="3" fill="none" />
  <path d="M150 45 C 145 40, 140 35, 145 30 C 150 25, 155 30, 150 45" stroke="#d6c8b6" stroke-width="2" fill="none" />
  <!-- Commanding eyes -->
  <circle cx="135" cy="90" r="4" fill="#d6c8b6" />
  <circle cx="165" cy="90" r="4" fill="#d6c8b6" />
  <!-- Serious expression -->
  <path d="M135 110 C 145 115, 155 115, 165 110" stroke="#d6c8b6" stroke-width="3" fill="none" />
  <!-- Military medals -->
  <circle cx="130" cy="140" r="5" stroke="#d6c8b6" stroke-width="2" fill="none" />
  <circle cx="145" cy="140" r="5" stroke="#d6c8b6" stroke-width="2" fill="none" />
  <circle cx="160" cy="140" r="5" stroke="#d6c8b6" stroke-width="2" fill="none" />
  <!-- Military uniform details -->
  <path d="M120 160 L 180 160" stroke="#d6c8b6" stroke-width="2" fill="none" />
  <path d="M120 160 C 110 170, 105 180, 100 190" stroke="#d6c8b6" stroke-width="2" fill="none" />
  <path d="M180 160 C 190 170, 195 180, 200 190" stroke="#d6c8b6" stroke-width="2" fill="none" />
  <!-- Leadership posture -->
  <path d="M140 180 C 150 190, 160 190, 170 180" stroke="#d6c8b6" stroke-width="3" fill="none" />
  <!-- Colonel's beard -->
  <path d="M140 115 C 135 125, 130 130, 125 125" stroke="#d6c8b6" stroke-width="2" fill="none" />
  <path d="M160 115 C 165 125, 170 130, 175 125" stroke="#d6c8b6" stroke-width="2" fill="none" />
</svg>
