<?xml version="1.0" encoding="UTF-8" standalone="no"?>
<svg xmlns="http://www.w3.org/2000/svg" width="300" height="300" viewBox="0 0 300 300">
  <rect width="300" height="300" fill="#121212" />
  <!-- Smart, tech-savvy chicken - Henrietta -->
  <path d="M150 60 C 130 65, 115 80, 110 100 C 105 120, 105 145, 115 165 C 125 185, 140 200, 160 210 C 180 220, 205 220, 220 210 C 235 200, 245 180, 245 160 C 245 140, 235 120, 220 105 C 205 90, 185 80, 165 75 C 145 70, 125 75, 115 90" stroke="#d6c8b6" stroke-width="3" fill="none" />
  <!-- Smart glasses -->
  <path d="M125 110 C 135 105, 145 105, 155 110" stroke="#d6c8b6" stroke-width="2" fill="none" />
  <path d="M145 110 C 155 105, 165 105, 175 110" stroke="#d6c8b6" stroke-width="2" fill="none" />
  <path d="M155 110 L 145 110" stroke="#d6c8b6" stroke-width="2" fill="none" />
  <!-- Tech-savvy eyes -->
  <circle cx="135" cy="110" r="3" fill="#d6c8b6" />
  <circle cx="165" cy="110" r="3" fill="#d6c8b6" />
  <!-- Thoughtful expression -->
  <path d="M140 130 C 150 135, 160 135, 170 130" stroke="#d6c8b6" stroke-width="2" fill="none" />
  <!-- Tech gadgets -->
  <path d="M120 150 C 110 155, 105 160, 100 170" stroke="#d6c8b6" stroke-width="2" fill="none" />
  <rect x="95" y="170" width="10" height="15" rx="2" stroke="#d6c8b6" stroke-width="2" fill="none" />
  <!-- Wires/cables -->
  <path d="M180 150 C 190 155, 195 160, 200 170" stroke="#d6c8b6" stroke-width="2" fill="none" />
  <path d="M200 170 C 205 175, 210 180, 215 175 C 220 170, 225 165, 230 170" stroke="#d6c8b6" stroke-width="1" fill="none" />
  <!-- Laptop/device -->
  <rect x="130" y="160" width="40" height="25" rx="3" stroke="#d6c8b6" stroke-width="2" fill="none" />
  <path d="M135 170 L 165 170" stroke="#d6c8b6" stroke-width="1" fill="none" />
  <path d="M135 175 L 155 175" stroke="#d6c8b6" stroke-width="1" fill="none" />
  <!-- Feather styling for tech genius -->
  <path d="M120 80 C 130 75, 140 73, 150 75" stroke="#d6c8b6" stroke-width="2" fill="none" />
  <path d="M150 75 C 160 73, 170 75, 180 80" stroke="#d6c8b6" stroke-width="2" fill="none" />
</svg>
