<?xml version="1.0" encoding="UTF-8" standalone="no"?>
<svg xmlns="http://www.w3.org/2000/svg" width="300" height="300" viewBox="0 0 300 300">
  <rect width="300" height="300" fill="#121212" />
  <!-- Slim, agile chicken - Plucker -->
  <path d="M150 50 C 130 60, 120 80, 115 100 C 110 120, 110 150, 120 170 C 130 190, 145 210, 160 220 C 175 230, 195 235, 210 225 C 225 215, 235 195, 240 175 C 245 155, 240 125, 230 105 C 220 85, 205 70, 190 60 C 175 50, 155 45, 140 55" stroke="#d6c8b6" stroke-width="3" fill="none" />
  <!-- Sleek, aerodynamic body -->
  <path d="M140 120 C 150 130, 160 130, 170 120" stroke="#d6c8b6" stroke-width="3" fill="none" />
  <circle cx="135" cy="100" r="4" fill="#d6c8b6" />
  <circle cx="165" cy="100" r="4" fill="#d6c8b6" />
  <!-- Ninja-like headband -->
  <path d="M120 85 C 140 75, 160 75, 180 85" stroke="#d6c8b6" stroke-width="3" fill="none" />
  <path d="M120 85 C 110 83, 105 80, 100 75 C 95 70, 93 65, 95 60" stroke="#d6c8b6" stroke-width="3" fill="none" />
  <!-- Sleek feathers -->
  <path d="M160 170 C 170 180, 180 185, 195 180" stroke="#d6c8b6" stroke-width="3" fill="none" />
  <path d="M140 170 C 130 180, 120 185, 105 180" stroke="#d6c8b6" stroke-width="3" fill="none" />
  <!-- Agile legs -->
  <path d="M140 220 C 135 230, 130 240, 125 250" stroke="#d6c8b6" stroke-width="3" fill="none" />
  <path d="M160 220 C 165 230, 170 240, 175 250" stroke="#d6c8b6" stroke-width="3" fill="none" />
  <!-- Stealth gear -->
  <path d="M150 140 C 140 145, 135 150, 130 160 C 125 170, 123 180, 125 190" stroke="#d6c8b6" stroke-width="2" fill="none" />
  <path d="M150 140 C 160 145, 165 150, 170 160 C 175 170, 177 180, 175 190" stroke="#d6c8b6" stroke-width="2" fill="none" />
</svg>
